<svg xmlns="http://www.w3.org/2000/svg" viewBox="0 0 470.12 663.43"><defs><style>.cls-1{fill:#15473f;}.cls-2{fill:#109e72;}</style></defs><g id="圖層_2" data-name="圖層 2"><g id="LOGO"><path class="cls-1" d="M67.26,534.92a4.85,4.85,0,0,1,2.52-.71h.39a4.78,4.78,0,0,1,2.68,1.1,2.27,2.27,0,0,1,.82,2.05,2.11,2.11,0,0,1-1.22,1.81l-.43.19a1.36,1.36,0,0,1-.35.12.69.69,0,0,0-.4.79,23.54,23.54,0,0,0,3.78,8.42,4.31,4.31,0,0,1,.86,2.59,3.58,3.58,0,0,1-.86,2.36,3.11,3.11,0,0,1-2.24,1.18,2.47,2.47,0,0,1-2.17-1q-2.83-4.17-4.48-11.64a.51.51,0,0,0-.71-.4l-.75.28a6.92,6.92,0,0,1-.82.27.73.73,0,0,0-.55.79v5.43c0,.31.18.44.55.39l1.26-.16a2.19,2.19,0,0,1,1.84.56,2.42,2.42,0,0,1,.91,1.73,3.26,3.26,0,0,1-.67,2,2.55,2.55,0,0,1-1.77,1.06l-6.21,1.18a3.11,3.11,0,0,1-2.21-.51,2.78,2.78,0,0,1-1.26-1.85l-.15-.7a1.77,1.77,0,0,1,.27-1.58,1.82,1.82,0,0,1,1.38-.78c.21-.06.31-.16.31-.32V540q-.15-.08-.15,0a1.83,1.83,0,0,1-1.58,1,2.05,2.05,0,0,1-.94-.24l-.71-.24c-.21,0-.31,0-.31.16v12.75a3.36,3.36,0,0,1-3.39,3.38,3.4,3.4,0,0,1-2.43-1,3.19,3.19,0,0,1-1-2.4V540.9a.43.43,0,0,0-.15-.36.31.31,0,0,0-.32,0l-1.41.63a.82.82,0,0,0-.56.79q-.23,10.16-1.57,11.8a4.55,4.55,0,0,1-3.46,2H39a4.64,4.64,0,0,1-2.91-1,7.29,7.29,0,0,1-2.2-3.22c-.06-.16-.11-.32-.16-.47a.25.25,0,0,0-.24-.16.24.24,0,0,0-.23.16,16.18,16.18,0,0,1-2.05,3.14,3.19,3.19,0,0,1-2.52,1.18,2.43,2.43,0,0,1-.55-.07,4.69,4.69,0,0,1-3.06-1.74v-.07a.17.17,0,0,0-.2,0,.17.17,0,0,0-.12.19l.16,1.26a4.23,4.23,0,0,1,.08.79,5.5,5.5,0,0,1-.87,2.91,5.63,5.63,0,0,1-3,2.28l-2,.63a.69.69,0,0,0-.56.71v20.53a15.55,15.55,0,0,1-.7,5.31,6,6,0,0,1-2.52,2.95A13.52,13.52,0,0,1,9,592.58H8.65a4.69,4.69,0,0,1-3.06-1.1,6.33,6.33,0,0,1-2-3.23,3,3,0,0,1-.16-.94,3,3,0,0,1,.71-1.89,2.94,2.94,0,0,1,2.52-1.33c.63,0,1.34.07,2.12.07a1.43,1.43,0,0,0,1-.31,1.72,1.72,0,0,0,.31-1.18V564.89a.39.39,0,0,0-.16-.35.4.4,0,0,0-.39,0c-.58.16-1.39.39-2.44.71a4.44,4.44,0,0,1-1.34.23,4,4,0,0,1-2.12-.63,4.06,4.06,0,0,1-2-2.75l-.07-.16a3.75,3.75,0,0,1-.16-1.1A4.6,4.6,0,0,1,5,556.32q2.36-.63,4.56-1.26a.73.73,0,0,0,.55-.79V542a.48.48,0,0,0-.55-.55H6.29a4.21,4.21,0,0,1-3.1-1.3,4.36,4.36,0,0,1,0-6.21,4.21,4.21,0,0,1,3.1-1.3H9.52a.49.49,0,0,0,.55-.55V521.78a4.07,4.07,0,0,1,1.26-3,4.37,4.37,0,0,1,6.06,0,4.1,4.1,0,0,1,1.25,3v10.31a.49.49,0,0,0,.56.55h1.25a4.41,4.41,0,0,1,0,8.81H19.2a.49.49,0,0,0-.56.55v9.91a.49.49,0,0,0,.16.32.36.36,0,0,0,.4.07l4.09-1.18a.87.87,0,0,1,.78.08.79.79,0,0,1,.4.71.22.22,0,0,0,.15.08q3.94-3,5.12-9.6c.05-.26-.06-.39-.32-.39h-.23a2.9,2.9,0,0,1-2.13-.87,2.81,2.81,0,0,1-.86-2.08,2.85,2.85,0,0,1,.86-2.09,2.93,2.93,0,0,1,2.13-.86h12.9a.26.26,0,0,0,.23-.12.22.22,0,0,0,0-.27,1.72,1.72,0,0,0-.23-.55,2.69,2.69,0,0,1-.2-2.17,2.24,2.24,0,0,1,1.46-1.53v-.16H28.87a3.78,3.78,0,1,1,0-7.55H45.55c.36,0,.55-.21.55-.63v-1a4.43,4.43,0,0,1,1.38-3.31,4.5,4.5,0,0,1,3.26-1.33h.08a4.5,4.5,0,0,1,3.26,1.33,4.43,4.43,0,0,1,1.38,3.31v1c0,.42.18.63.55.63H71.82a3.78,3.78,0,1,1,0,7.55H59.47v.08a2,2,0,0,1,1.3,1.26,2.06,2.06,0,0,1-.12,1.81,13.52,13.52,0,0,0-.86,1.49c-.21.32-.13.53.23.63l1.5.47a1.32,1.32,0,0,0,1.1,0C64.3,536.36,65.84,535.65,67.26,534.92Zm-5.74,26.59A.42.42,0,0,0,62,561a3.54,3.54,0,0,1,1.1-2.64,3.6,3.6,0,0,1,2.6-1.06h.78a4.35,4.35,0,0,1,3.15,1.3,4.17,4.17,0,0,1,1.34,3.1v26.44a4.25,4.25,0,0,1-1.34,3.18,4.39,4.39,0,0,1-3.19,1.3A4.44,4.44,0,0,1,62,588.18v-6.85c0-.36-.21-.55-.63-.55H38.94a.82.82,0,0,0-.79.55,25.6,25.6,0,0,1-4.87,8.81,4.16,4.16,0,0,1-3.15,1.34,5.08,5.08,0,0,1-3.38-1.18,3.15,3.15,0,0,1-1.5-2.44v-.39a3.53,3.53,0,0,1,.87-2.36q5.11-6.3,5.11-17.15v-6.22a4.44,4.44,0,0,1,4.41-4.4h.7A3.62,3.62,0,0,1,40,561a.42.42,0,0,0,.47.47ZM38.47,542.63a.56.56,0,0,0-.63-.63H36.58c-.42,0-.66.18-.71.55a29.14,29.14,0,0,1-2,7.08c-.11.37,0,.55.39.55.63.05,1.28.08,2,.08a2,2,0,0,0,1.57-.63Q38.23,549.08,38.47,542.63Zm1.41,30.13c-.05.37.13.55.56.55H61.36c.42,0,.63-.18.63-.55v-3.23a.56.56,0,0,0-.63-.63H40.67a.56.56,0,0,0-.63.63C40,570.58,40,571.66,39.88,572.76Zm8-32.81s0,0,0,.08h4.8a1.28,1.28,0,0,1-.75-.78,1.27,1.27,0,0,1,0-1,39.88,39.88,0,0,0,2.75-6.37.4.4,0,0,0,0-.39.39.39,0,0,0-.35-.16H47a.31.31,0,0,0-.31.16.34.34,0,0,0,0,.31,32,32,0,0,1,2.6,5.12,2,2,0,0,1,0,1.77A2.63,2.63,0,0,1,47.91,540Z"/><path class="cls-1" d="M157.3,568.43a6.09,6.09,0,0,1,.95-.08,4,4,0,0,1,2.12.63,3.94,3.94,0,0,1,1.57,2.68,2.72,2.72,0,0,1,.08.63,4.68,4.68,0,0,1-.86,2.67,4.79,4.79,0,0,1-2.76,2q-.94.23-20.61,5.35a4.49,4.49,0,0,1-1.18.15,4.54,4.54,0,0,1-2.28-.63,4.38,4.38,0,0,1-2-2.83v-.15a3.14,3.14,0,0,1-.15-1,4.5,4.5,0,0,1,.78-2.52,4.43,4.43,0,0,1,2.91-2q2.68-.55,6-1.34c.37,0,.55-.29.55-.71v-15.5c0-.36-.21-.55-.63-.55h-3.69a4.41,4.41,0,0,1,0-8.81h3.69c.42,0,.63-.18.63-.55V532.87a.56.56,0,0,0-.63-.63h-4.48a4.26,4.26,0,0,1-3.11-1.29,4.47,4.47,0,0,1,0-6.3,4.26,4.26,0,0,1,3.11-1.29H156a4.24,4.24,0,0,1,3.11,1.29,4.47,4.47,0,0,1,0,6.3,4.24,4.24,0,0,1-3.11,1.29h-3.69c-.37,0-.55.21-.55.63v13.06a.48.48,0,0,0,.55.55h3a4.41,4.41,0,0,1,0,8.81h-3a.49.49,0,0,0-.55.55v13.38c0,.37.18.52.55.47Zm38.55,14.87h2.83c.52,0,.9-.41,1.14-1.22a26.28,26.28,0,0,0,.51-5.15,2.35,2.35,0,0,1,1.34-2.21,3,3,0,0,1,1.49-.39,2.8,2.8,0,0,1,1.26.32h.08a6.94,6.94,0,0,1,3.07,2.51,5.31,5.31,0,0,1,.94,3,3.15,3.15,0,0,1-.08.71q-.78,6.45-2.79,8.93a7.29,7.29,0,0,1-6,2.48h-5.5q-5.43,0-7.28-2.52c-1.23-1.68-1.85-4.82-1.85-9.44V555.45a.48.48,0,0,0-.55-.55h-4.33a.58.58,0,0,0-.63.55c-.15,3.78-.42,7-.78,9.68a56.08,56.08,0,0,1-1.77,8.14,28.24,28.24,0,0,1-3.15,7.16,27.5,27.5,0,0,1-5,5.78,30.37,30.37,0,0,1-7.36,4.72,4.92,4.92,0,0,1-1.89.39,4.44,4.44,0,0,1-1.65-.31,6.12,6.12,0,0,1-3-2.28,3.26,3.26,0,0,1-.71-2,2.39,2.39,0,0,1,.16-.86,2.88,2.88,0,0,1,1.81-2.21,25.92,25.92,0,0,0,5.94-3.81,21.17,21.17,0,0,0,4-4.49,19.81,19.81,0,0,0,2.4-5.66,43.34,43.34,0,0,0,1.26-6.45c.24-2.07.43-4.68.59-7.83a.48.48,0,0,0-.55-.55H165.8a4.51,4.51,0,0,1-3.27-1.34,4.58,4.58,0,0,1,0-6.53,4.54,4.54,0,0,1,3.27-1.33h36.81a4.4,4.4,0,0,1,3.23,1.33,4.65,4.65,0,0,1,0,6.53,4.37,4.37,0,0,1-3.23,1.34h-7.47c-.42,0-.63.18-.63.55v24.78a7.93,7.93,0,0,0,.24,2.56C194.9,583.13,195.27,583.3,195.85,583.3Zm2.67-60.18a4.43,4.43,0,0,1,3.23,1.34,4.56,4.56,0,0,1-3.23,7.78H168.94a4.56,4.56,0,0,1,0-9.12Z"/><path class="cls-1" d="M292.73,521.31a8.68,8.68,0,0,1,7.24-3.78h.63a9.24,9.24,0,0,1,7.47,3.7,79.9,79.9,0,0,0,12.67,12.67,78,78,0,0,0,14.79,9.44,3.35,3.35,0,0,1,1.88,2.44,4.51,4.51,0,0,1,.08.86,3.42,3.42,0,0,1-.7,2.12c-.27.37-.53.77-.79,1.19a5.12,5.12,0,0,1-4.25,2.28,4.51,4.51,0,0,1-2.28-.63q-3.78-2.21-7.79-5a.26.26,0,0,0-.31-.08.32.32,0,0,0-.16.32v.31a4.7,4.7,0,0,1-4.64,4.64H285.73a4.42,4.42,0,0,1-3.26-1.37,4.47,4.47,0,0,1-1.38-3.27v-.39a.3.3,0,0,0-.16-.31.24.24,0,0,0-.31.07q-3.71,2.68-7.95,5.2a4.53,4.53,0,0,1-2.36.7,5.16,5.16,0,0,1-4.25-2.2,2.47,2.47,0,0,1-.39-.55,3.42,3.42,0,0,1-.86-2.28,4.22,4.22,0,0,1,.07-.79,3.6,3.6,0,0,1,1.81-2.52,84.84,84.84,0,0,0,14.52-10.42A82.46,82.46,0,0,0,292.73,521.31Zm-12.35,71.43a4.51,4.51,0,0,1-3.26-1.34,4.41,4.41,0,0,1-1.38-3.3V564.34a4.71,4.71,0,0,1,4.64-4.64h41.85a4.7,4.7,0,0,1,4.64,4.64V588.1a4.44,4.44,0,0,1-1.37,3.3,4.55,4.55,0,0,1-3.27,1.34h-2.59a2.43,2.43,0,0,1-1.85-.79,2.63,2.63,0,0,1-.75-1.89.28.28,0,0,0-.31-.31H285.57c-.26,0-.39.1-.39.31a2.63,2.63,0,0,1-.75,1.89,2.43,2.43,0,0,1-1.85.79Zm4.8-49.8a.19.19,0,0,0,.16.32h31.31a.17.17,0,0,0,.19-.12.17.17,0,0,0,0-.2,86.69,86.69,0,0,1-15.73-15.49.31.31,0,0,0-.31-.24.31.31,0,0,0-.32.24A82.61,82.61,0,0,1,285.18,542.94ZM317,568.75c0-.37-.21-.55-.63-.55h-30.6c-.42,0-.63.18-.63.55v12a.56.56,0,0,0,.63.63h30.6a.56.56,0,0,0,.63-.63Z"/><path class="cls-1" d="M428.71,535.78a3.5,3.5,0,0,1-1.1,2.64,3.6,3.6,0,0,1-2.59,1.06h-12.2a2.71,2.71,0,0,1-1.92-.78,2.54,2.54,0,0,1-.83-1.89.14.14,0,0,0-.08-.12.29.29,0,0,0-.16,0,64,64,0,0,1-6.45,5.35.2.2,0,0,0,0,.2c0,.08.1.11.2.11h27a4.7,4.7,0,0,1,4.64,4.65v15.81a4.42,4.42,0,0,1-1.37,3.26,4.47,4.47,0,0,1-3.27,1.38H409.76c-.42,0-.66.18-.71.55-.16.89-.27,1.57-.32,2s0,.63.48.63H431.7a4.56,4.56,0,0,1,4.64,4.65V588.1a4,4,0,0,1-1.21,2.95,4,4,0,0,1-2.88,1.22h-2.2a2,2,0,0,1-2-2c0-.21-.07-.31-.23-.31H414.71c-.15,0-.23.1-.23.31a2.09,2.09,0,0,1-.67,1.57,2.19,2.19,0,0,1-1.54.63h-1.81a4,4,0,0,1-2.91-1.18,3.88,3.88,0,0,1-1.18-2.83v-8.65a.12.12,0,0,0-.08-.12c-.05,0-.07,0-.07,0a41,41,0,0,1-3.54,7.71,3,3,0,0,1-2.52,1.49h-.24a3.6,3.6,0,0,1-2.67-1.1,5.17,5.17,0,0,1-1.58-2.91,4.87,4.87,0,0,1,.56-3.22q5.65-10.08,5.66-27.7V543.42c0-.27-.11-.32-.32-.16a2.62,2.62,0,0,1-2.08.39,3,3,0,0,1-1.85-1.18c-.31-.42-.66-.84-1-1.26a3.93,3.93,0,0,1-.87-2.51v-.4a3.27,3.27,0,0,1,1.5-2.59A57.24,57.24,0,0,0,411.41,522,7.84,7.84,0,0,1,418,518.4a12,12,0,0,1,7.63,2.59q6.21,5,10.14,8.66a4.57,4.57,0,0,1,1.5,3.46,5,5,0,0,1-1.18,3.3l-.08.08a4.15,4.15,0,0,1-3.07,1.42,3.88,3.88,0,0,1-3.06-1.34,12.42,12.42,0,0,1-.87-.94.15.15,0,0,0-.2,0Q428.71,535.7,428.71,535.78Zm-18.88,24.31c-.05.42.13.63.56.63H426c.37,0,.55-.21.55-.63V558.2a.49.49,0,0,0-.55-.55H410.54a.57.57,0,0,0-.63.55C409.91,558.68,409.89,559.31,409.83,560.09Zm16.68-10.46c0-.42-.18-.63-.55-.63H410.62a.56.56,0,0,0-.63.63v1.65a.56.56,0,0,0,.63.63H426c.37,0,.55-.21.55-.63Zm-12.43-17a.15.15,0,0,0-.08.23.25.25,0,0,0,.24.16h11.64a.18.18,0,0,0,.2-.12.38.38,0,0,0,0-.27q-3.78-3.61-6.29-5.67a.55.55,0,0,0-.87.08Q416.36,530.2,414.08,532.64Zm14,45.39c0-.37-.2-.55-.62-.55H415a.48.48,0,0,0-.55.55v4.56a.48.48,0,0,0,.55.55h12.43c.42,0,.62-.18.62-.55Zm13.14-49.52a4.55,4.55,0,0,1,6.37,0,4.25,4.25,0,0,1,1.34,3.18V568a4.52,4.52,0,0,1-9,0V531.69A4.24,4.24,0,0,1,441.22,528.51Zm16.29-4.84a4.5,4.5,0,0,1,1.33-3.26,4.65,4.65,0,0,1,6.61,0,4.51,4.51,0,0,1,1.34,3.26v57.58a15.93,15.93,0,0,1-1,6.18,6.08,6.08,0,0,1-3.3,3.19q-3.07,1.65-10.31,1.88H452a5.16,5.16,0,0,1-3.3-1.18,6,6,0,0,1-2.21-3.22c-.1-.32-.21-.63-.31-1a2.7,2.7,0,0,1-.24-1.1,3,3,0,0,1,.63-1.81A2.82,2.82,0,0,1,449,583h6.45a2.47,2.47,0,0,0,1.57-.39,1.75,1.75,0,0,0,.48-1.42Z"/><path class="cls-2" d="M320.45,217.72c8.56,8.43,47.78-15.06,86.81-29.77,47.15-17.78,47.38-34.72,45-41s-12.52-32.36-61.08-9C345,160.23,306.43,203.92,320.45,217.72Z"/><path class="cls-2" d="M465.88,215.05c-5.69-26.93-34-25.68-68.11-10.57C341.2,229.53,316.22,230.63,291.56,239c-25.43,8.61-42.15,35.26-36.37,55.82,8.17,29.08,43.19,11.82,60.59-.51-.93,12.05-3.76,27.84-12.26,49.9-14.24,37-23.34,40.91-29.7,39.4S262.21,372.37,259.88,359s-12.7-44.62-34.39-37.64c-22.68,7.31-18.94,37.95-10.16,51.58s13.67,38.89-13.94,24.25c-29.69-15.76-57.57-11.22-67.57,3.33s-9.4,47.27,44.78,60.3,93.2-2.27,120.83-26.66c31.06-27.43,42.25-91.42,46.41-110.11,5.86-26.26,16-48.42,24.65-48.42,9.7,0,5.5,27.38-5.46,46.17C354.18,340.43,331.1,379,360.44,396c35.28,20.49,54.76-15.66,68-36.63s21.92-38.19,26.18-52.72c3.4-11.58,6.85-25.23-6.53-29.44-13.56-4.27-20.4,4-32.77,25.55-12.67,22.05-17.4,33.45-20.87,32-3.94-1.62,11-35.16,15.46-47.58,1.34-3.71,5.1-13,5.65-16.66a59.12,59.12,0,0,0,.66-12.79C460.9,248.54,469.53,232.32,465.88,215.05Z"/><path class="cls-2" d="M148.76,180.62c4.66,0,6.19,2,10.58,4.43,8.78,4.9,18.29,2.93,25.74-4.33,9.53-9.27,7.77-21.24,3.7-31.19-2.37-5.78-2.24-12.22.09-18.66,1.68-4.66,2.24-16.54-7.71-23.11-11.78-7.78-26.53-3.76-45.45,12.56C115.44,137.81,79.28,184,65.79,236c-9.72,37.48-8,58.9,9.39,58.83,18.23-.08,26.9-16.92,30.48-53.79.9-9.26,7.47-7.1,10.48-4.6l.06.06c19.58,16.44,46.59,50.42,67.89,28,20.76-21.88-31.44-52.43-40.75-59.7-8.63-6.73-6.23-14.94-4.6-18.07A10.81,10.81,0,0,1,148.76,180.62Z"/><path class="cls-2" d="M274.78,129.06c34.43-34.14,29.09-46.22,21.57-53-9-8.13-24.43-9-54,20.58s-38.87,48-27.59,59.9C225.36,167.68,244.64,159,274.78,129.06Z"/><path class="cls-1" d="M234,88.26c26.65-18.91,28.69-32,21.89-39.95-7.24-8.48-19.44-9.34-45.79,9.5S179.75,88.35,185.9,99.06C190.31,106.74,202.48,110.64,234,88.26Z"/><path class="cls-1" d="M351.13,133.57c-.88-6.37-7.64-12.34-16-13.33-7.67-.92-24.17,1.94-32.59,4.14-7.57,2-13.5,2.07-20.65,11.07-6.07,7.65-6,16.84-5.34,23.29a199.09,199.09,0,0,0,5.57,29.57c3,11.12,12.69,13.16,19.29,11.57a13.59,13.59,0,0,0,10.89-13.28c.23-6-5-30.55-5-30.55s15.82-1.63,23.82-3.35S353.23,148.78,351.13,133.57Z"/><path class="cls-2" d="M261.13,40.84c15,6.48,39.07,13,53.68,25,14.09,11.61,34.37,39,42.15,50.32,7.52,11,16.8,16.3,27.8,11.52,9.57-4.17,13-13.94.08-39.19-16.4-32-20-52.67-31.53-62.2-12.39-10.27-48.69-13.95-73.79-19.93C252.71,0,243.65,4.45,240.36,14.75,237.34,24.19,246.11,34.37,261.13,40.84Z"/><path class="cls-2" d="M47.65,260.44c1.4-17.59,9.72-65.47,37.68-110.81,24.65-40,78.85-79.82,119.79-101.29,20-10.52,33.31-24.19,29-34.93C227.24-3.9,204-3.82,173.17,10c-7.48,3.36-15.91,8.75-24.94,15.84-36,6.3-77.84,18.28-76.55,39.89.82,13.76,10.23,16.66,22.25,15A80.78,80.78,0,0,1,72.57,98.87c-17,10-35.58,22.08-45.43,32.58-24.58,26.22-29.35,45-15.94,55.93,2.75,2.24,6.11,2.7,9.48,2.44A1.58,1.58,0,0,1,22.25,192C11.82,216,8.54,234.67,5.54,257.82.48,296.89,14.8,317.62,30.75,314,47.42,310.23,46,281,47.65,260.44Z"/><path class="cls-2" d="M259,246c14.26-33.48,12.64-56.22,1.25-65.44-6.13-5-21.79-13.82-36.5-4.5S209.83,197,213.47,208.94c3.87,12.72-2.49,31.41-2.49,31.41h0c-8.7,22.84-22.07,41.81-53.85,58.06-55.5,28.39-104.55-14.69-119.1,29.4s41.37,58.64,97.28,39.55S238.06,295.09,259,246Z"/><path class="cls-2" d="M11.72,662.83a2.42,2.42,0,0,1-1.81-.76,2.49,2.49,0,0,1-.73-1.78V635.93a.3.3,0,0,0-.34-.34H2.54a2.46,2.46,0,0,1-1.81-.74A2.43,2.43,0,0,1,0,633v-.34a2.47,2.47,0,0,1,.73-1.79,2.44,2.44,0,0,1,1.81-.76H22.42a2.45,2.45,0,0,1,1.81.76A2.51,2.51,0,0,1,25,632.7V633a2.51,2.51,0,0,1-2.54,2.55H16a.31.31,0,0,0-.35.34v24.36a2.45,2.45,0,0,1-.73,1.78,2.4,2.4,0,0,1-1.81.76Z"/><path class="cls-2" d="M38.88,663.43A16.91,16.91,0,0,1,29,660.29,2.18,2.18,0,0,1,28,658.6a.59.59,0,0,1,0-.21,2.47,2.47,0,0,1,.64-1.68l.48-.56a2.33,2.33,0,0,1,1.72-.91h.3a3.06,3.06,0,0,1,1.64.48,11.4,11.4,0,0,0,6.29,2.07,6.3,6.3,0,0,0,3.84-1A3.24,3.24,0,0,0,44.23,654a2.83,2.83,0,0,0-1-2.39,18.06,18.06,0,0,0-3.53-1.87l-.3-.13L35,647.78a12.62,12.62,0,0,1-4.72-3.36A8,8,0,0,1,28.36,639a8.5,8.5,0,0,1,3.19-6.75,12.17,12.17,0,0,1,8.11-2.69,14.33,14.33,0,0,1,8.27,2.54,2.18,2.18,0,0,1,1,1.73V634a2.44,2.44,0,0,1-.65,1.68l-.09.13a2.44,2.44,0,0,1-1.72.95,2.18,2.18,0,0,1-.43.05,3,3,0,0,1-1.55-.43,9.72,9.72,0,0,0-4.83-1.25,5.92,5.92,0,0,0-3.45.9,2.92,2.92,0,0,0-1.29,2.54,2.85,2.85,0,0,0,.34,1.43,3.48,3.48,0,0,0,1.14,1.12,15.53,15.53,0,0,0,1.43.82c.41.2,1.05.46,1.91.77l.31.13,4.26,1.81a12,12,0,0,1,4.92,3.43,8.43,8.43,0,0,1,1.68,5.45,9,9,0,0,1-3.26,7Q44.4,663.43,38.88,663.43Z"/><path class="cls-2" d="M59.19,662.83a2.6,2.6,0,0,1-2.55-2.54V632.7a2.42,2.42,0,0,1,.76-1.79,2.46,2.46,0,0,1,1.79-.76h1.46a2.58,2.58,0,0,1,2.54,2.55v27.59a2.58,2.58,0,0,1-2.54,2.54Z"/><path class="cls-2" d="M80.22,662.83a2.4,2.4,0,0,1-1.81-.76,2.45,2.45,0,0,1-.73-1.78V635.93a.31.31,0,0,0-.35-.34H71A2.51,2.51,0,0,1,68.5,633v-.34a2.47,2.47,0,0,1,.73-1.79,2.44,2.44,0,0,1,1.81-.76H90.91a2.44,2.44,0,0,1,1.81.76,2.47,2.47,0,0,1,.73,1.79V633a2.51,2.51,0,0,1-2.54,2.55H84.53a.3.3,0,0,0-.34.34v24.36a2.46,2.46,0,0,1-.74,1.78,2.4,2.4,0,0,1-1.81.76Z"/><path class="cls-2" d="M121.3,663.43q-12.72,0-12.72-15.3V632.7a2.6,2.6,0,0,1,2.55-2.55h1.46a2.6,2.6,0,0,1,2.55,2.55v16c0,3.28.52,5.61,1.57,7a5.4,5.4,0,0,0,4.59,2.09,5.58,5.58,0,0,0,4.72-2.12q1.62-2.1,1.62-7v-16a2.58,2.58,0,0,1,2.54-2.55h1.21a2.48,2.48,0,0,1,1.79.76,2.45,2.45,0,0,1,.75,1.79v15.43q0,7.93-3.23,11.62T121.3,663.43Z"/><path class="cls-2" d="M161.39,662.83a3.37,3.37,0,0,1-3.23-2.46l-1.51-5.6a.41.41,0,0,0-.43-.35h-10c-.2,0-.33.12-.39.35l-1.55,5.6a3.32,3.32,0,0,1-1.19,1.77,3.15,3.15,0,0,1-2,.69h-1.55a1.77,1.77,0,0,1-1.51-.78,1.71,1.71,0,0,1-.35-1,2.2,2.2,0,0,1,.09-.61l8.92-27.84a3.45,3.45,0,0,1,3.32-2.42h2.59a3.47,3.47,0,0,1,2.05.67,3.43,3.43,0,0,1,1.27,1.75l9,27.84a2.2,2.2,0,0,1,.09.61,1.58,1.58,0,0,1-.39,1,1.72,1.72,0,0,1-1.46.78ZM151.22,624a.41.41,0,0,0-.18.05l-3.92,3.19a2.31,2.31,0,0,1-1.33.51h-.18a2.23,2.23,0,0,1-1.2-.34,1.38,1.38,0,0,1-.67-1,1.32,1.32,0,0,1,.32-1.15l2-2.37a5.23,5.23,0,0,1,4.18-1.94h1.9a5.26,5.26,0,0,1,4.18,1.94l2,2.37a1.45,1.45,0,0,1,.34,1.17,1.3,1.3,0,0,1-.64,1,2.29,2.29,0,0,1-1.21.34h-.17a2.15,2.15,0,0,1-1.3-.51l-4-3.19A.19.19,0,0,0,151.22,624Zm-3.75,25a.25.25,0,0,0,0,.24.21.21,0,0,0,.19.11h7.11a.28.28,0,0,0,.22-.11.23.23,0,0,0,0-.24l-.9-3.23c-.38-1.29-.89-3.21-1.55-5.75s-1.1-4.16-1.3-4.85c0-.06,0-.09-.08-.09a.14.14,0,0,0-.13.09q-1.26,5.25-2.76,10.6Z"/><path class="cls-2" d="M172,662.83a2.6,2.6,0,0,1-2.55-2.54V632.7a2.6,2.6,0,0,1,2.55-2.55h1.59a4.29,4.29,0,0,1,3.75,2.25l8.28,15.17,3.23,6.94c0,.09.08.13.15.13s.11,0,.11-.13q-.85-7.93-.86-11.34V632.7a2.58,2.58,0,0,1,2.54-2.55H192a2.6,2.6,0,0,1,2.55,2.55v27.59a2.6,2.6,0,0,1-2.55,2.54H190.4a4.21,4.21,0,0,1-2.18-.6,4.26,4.26,0,0,1-1.57-1.64l-8.23-15.26-3.28-6.9a.16.16,0,0,0-.15-.09c-.07,0-.11,0-.11.09.06.43.15,1.31.26,2.63s.2,2.34.26,3,.12,1.6.19,2.69.11,2.07.11,2.93v10.57a2.58,2.58,0,0,1-2.54,2.54Z"/><path class="cls-2" d="M225.83,663.43a15,15,0,0,1-5.79-1.1,13.86,13.86,0,0,1-4.75-3.19,14.78,14.78,0,0,1-3.23-5.3,22.38,22.38,0,0,1,0-14.4,15.44,15.44,0,0,1,3.3-5.41,14.71,14.71,0,0,1,4.85-3.32,15,15,0,0,1,5.86-1.16,12.72,12.72,0,0,1,7.63,2.54,2.18,2.18,0,0,1,.95,1.9,2.57,2.57,0,0,1-.65,1.72l-.17.22a2.34,2.34,0,0,1-1.72.86h-.26a2.93,2.93,0,0,1-1.64-.47,7.49,7.49,0,0,0-4-1.16,7.65,7.65,0,0,0-6.23,3,12.81,12.81,0,0,0-2.43,8.22q0,5.3,2.3,8.34a7.44,7.44,0,0,0,6.23,3,8.27,8.27,0,0,0,4.83-1.56,2.88,2.88,0,0,1,1.68-.51h.17a2.23,2.23,0,0,1,1.69.81l.17.18a2.64,2.64,0,0,1,.69,1.81,2.29,2.29,0,0,1-.86,1.89A13,13,0,0,1,225.83,663.43Z"/><path class="cls-2" d="M263.4,658.82a14.45,14.45,0,0,1-21.16,0q-4-4.62-4-12.46t4-12.33a14.79,14.79,0,0,1,21.21,0q4,4.49,4,12.33T263.4,658.82ZM247,654.68a7,7,0,0,0,11.6,0,14.39,14.39,0,0,0,2.15-8.32q0-5.21-2.15-8.21a7.14,7.14,0,0,0-11.62,0q-2.13,3-2.13,8.21A14.31,14.31,0,0,0,247,654.68Z"/><path class="cls-2" d="M276.35,662.83a2.58,2.58,0,0,1-2.54-2.54V632.7a2.45,2.45,0,0,1,.75-1.79,2.48,2.48,0,0,1,1.79-.76h1.47a2.58,2.58,0,0,1,2.54,2.55v24.35a.27.27,0,0,0,.3.3h10.39a2.6,2.6,0,0,1,2.55,2.55v.39a2.6,2.6,0,0,1-2.55,2.54Z"/><path class="cls-2" d="M301.79,662.83a2.6,2.6,0,0,1-2.55-2.54V632.7a2.6,2.6,0,0,1,2.55-2.55h1.46a2.6,2.6,0,0,1,2.55,2.55v24.35a.27.27,0,0,0,.3.3h10.39a2.48,2.48,0,0,1,1.79.76,2.45,2.45,0,0,1,.75,1.79v.39a2.58,2.58,0,0,1-2.54,2.54Z"/><path class="cls-2" d="M327.22,662.83a2.58,2.58,0,0,1-2.54-2.54V632.7a2.58,2.58,0,0,1,2.54-2.55h15a2.44,2.44,0,0,1,1.81.76,2.47,2.47,0,0,1,.73,1.79V633a2.51,2.51,0,0,1-2.54,2.55H331.53c-.2,0-.3.11-.3.34v6.9a.27.27,0,0,0,.3.3h8.62a2.56,2.56,0,0,1,2.54,2.54v.39a2.43,2.43,0,0,1-.75,1.81,2.47,2.47,0,0,1-1.79.73h-8.62c-.2,0-.3.12-.3.35v8.1a.27.27,0,0,0,.3.3h11.12a2.44,2.44,0,0,1,1.81.76,2.47,2.47,0,0,1,.73,1.79v.39a2.45,2.45,0,0,1-.73,1.78,2.4,2.4,0,0,1-1.81.76Z"/><path class="cls-2" d="M365.11,663.43a15.09,15.09,0,0,1-5.8-1.1,13.92,13.92,0,0,1-4.74-3.19,14.78,14.78,0,0,1-3.23-5.3,20.75,20.75,0,0,1-1.19-7.22,20.41,20.41,0,0,1,1.21-7.18,15.15,15.15,0,0,1,3.3-5.41,14.71,14.71,0,0,1,4.85-3.32,15,15,0,0,1,5.86-1.16,12.72,12.72,0,0,1,7.63,2.54A2.18,2.18,0,0,1,374,634a2.62,2.62,0,0,1-.65,1.72l-.17.22a2.36,2.36,0,0,1-1.73.86h-.25a2.91,2.91,0,0,1-1.64-.47,7.52,7.52,0,0,0-4-1.16,7.64,7.64,0,0,0-6.23,3,12.82,12.82,0,0,0-2.44,8.22q0,5.3,2.31,8.34a7.43,7.43,0,0,0,6.23,3,8.32,8.32,0,0,0,4.83-1.56,2.88,2.88,0,0,1,1.68-.51h.17a2.2,2.2,0,0,1,1.68.81l.17.18a2.64,2.64,0,0,1,.69,1.81,2.26,2.26,0,0,1-.86,1.89A13,13,0,0,1,365.11,663.43Z"/><path class="cls-2" d="M389.29,662.83a2.4,2.4,0,0,1-1.81-.76,2.45,2.45,0,0,1-.73-1.78V635.93a.31.31,0,0,0-.35-.34h-6.29a2.51,2.51,0,0,1-2.54-2.55v-.34a2.47,2.47,0,0,1,.73-1.79,2.44,2.44,0,0,1,1.81-.76H400a2.44,2.44,0,0,1,1.81.76,2.48,2.48,0,0,1,.74,1.79V633a2.53,2.53,0,0,1-2.55,2.55H393.6a.3.3,0,0,0-.34.34v24.36a2.49,2.49,0,0,1-.73,1.78,2.42,2.42,0,0,1-1.81.76Z"/><path class="cls-2" d="M410.37,662.83a2.58,2.58,0,0,1-2.54-2.54V632.7a2.58,2.58,0,0,1,2.54-2.55h1.47a2.48,2.48,0,0,1,1.79.76,2.45,2.45,0,0,1,.75,1.79v27.59a2.58,2.58,0,0,1-2.54,2.54Z"/><path class="cls-2" d="M430.63,662.83a3.27,3.27,0,0,1-2-.67,3.43,3.43,0,0,1-1.26-1.75l-8.49-27.8a2.47,2.47,0,0,1-.08-.6,1.77,1.77,0,0,1,.39-1.08,1.75,1.75,0,0,1,1.5-.78h1.77a3.18,3.18,0,0,1,2,.69,3.36,3.36,0,0,1,1.18,1.77l3.67,13.45q.46,1.68,1.31,5.11c.56,2.28,1,4.06,1.4,5.32,0,.09.08.13.15.13s.11,0,.11-.13c.32-1.15.77-2.86,1.36-5.15s1.05-4,1.4-5.28l3.58-13.45a3.31,3.31,0,0,1,1.18-1.77,3.18,3.18,0,0,1,2-.69h1.55a1.78,1.78,0,0,1,1.51.78,1.82,1.82,0,0,1,.38,1.08,2.06,2.06,0,0,1-.08.6l-8.54,27.8a3.35,3.35,0,0,1-1.25,1.75,3.29,3.29,0,0,1-2,.67Z"/><path class="cls-2" d="M452.14,662.83a2.58,2.58,0,0,1-2.54-2.54V632.7a2.58,2.58,0,0,1,2.54-2.55h15a2.44,2.44,0,0,1,1.81.76,2.47,2.47,0,0,1,.73,1.79V633a2.51,2.51,0,0,1-2.54,2.55H456.45c-.2,0-.3.11-.3.34v6.9a.27.27,0,0,0,.3.3h8.62a2.45,2.45,0,0,1,1.79.75,2.48,2.48,0,0,1,.76,1.79v.39a2.44,2.44,0,0,1-.76,1.81,2.47,2.47,0,0,1-1.79.73h-8.62c-.2,0-.3.12-.3.35v8.1a.27.27,0,0,0,.3.3h11.12a2.42,2.42,0,0,1,1.81.76,2.48,2.48,0,0,1,.74,1.79v.39a2.46,2.46,0,0,1-.74,1.78,2.39,2.39,0,0,1-1.81.76Z"/><rect class="cls-2" x="57.36" y="619.63" width="5.3" height="7.95" rx="2.57"/></g></g></svg>